<?xml version="1.0" encoding="UTF-8" standalone="no"?>
<!-- Created with Inkscape (http://www.inkscape.org/) -->

<svg
   width="130.66859mm"
   height="26.599463mm"
   viewBox="0 0 130.66859 26.599463"
   version="1.1"
   id="svg5"
   inkscape:version="1.1.1 (3bf5ae0d25, 2021-09-20)"
   sodipodi:docname="logo.svg"
   xmlns:inkscape="http://www.inkscape.org/namespaces/inkscape"
   xmlns:sodipodi="http://sodipodi.sourceforge.net/DTD/sodipodi-0.dtd"
   xmlns="http://www.w3.org/2000/svg"
   xmlns:svg="http://www.w3.org/2000/svg">
  <sodipodi:namedview
     id="namedview7"
     pagecolor="#ffffff"
     bordercolor="#666666"
     borderopacity="1.0"
     inkscape:pageshadow="2"
     inkscape:pageopacity="0.0"
     inkscape:pagecheckerboard="0"
     inkscape:document-units="mm"
     showgrid="false"
     inkscape:zoom="1.7577085"
     inkscape:cx="226.43117"
     inkscape:cy="42.38473"
     inkscape:window-width="1920"
     inkscape:window-height="1051"
     inkscape:window-x="-9"
     inkscape:window-y="-9"
     inkscape:window-maximized="1"
     inkscape:current-layer="text1089-6"
     fit-margin-top="0"
     fit-margin-left="0"
     fit-margin-right="0"
     fit-margin-bottom="0" />
  <defs
     id="defs2" />
  <g
     inkscape:label="Calque 1"
     inkscape:groupmode="layer"
     id="layer1"
     transform="translate(-16.973686,-168.08281)">
    <g
       aria-label="Fruition"
       id="text1089-6"
       style="font-weight:800;font-size:35.2778px;line-height:1.25;font-family:Nunito;-inkscape-font-specification:'Nunito Ultra-Bold';stroke-width:0.264583">
      <path
         d="m 20.254522,194.61172 q -1.552223,0 -2.434168,-0.84667 -0.846668,-0.88194 -0.846668,-2.50472 v -18.48557 q 0,-1.62278 0.846668,-2.46945 0.881945,-0.88194 2.540001,-0.88194 h 11.747508 q 1.270001,0 1.905002,0.635 0.635,0.635 0.635,1.83445 0,1.23472 -0.635,1.905 -0.635001,0.635 -1.905002,0.635 h -8.643061 v 5.00945 h 7.86695 q 1.234723,0 1.869723,0.635 0.670278,0.635 0.670278,1.83444 0,1.23472 -0.670278,1.86973 -0.635,0.635 -1.869723,0.635 h -7.86695 v 6.84389 q 0,3.35139 -3.21028,3.35139 z"
         style="font-weight:900;-inkscape-font-specification:'Nunito Heavy';fill:#a02222"
         id="path826" />
      <path
         d="m 39.833642,194.61172 q -1.552223,0 -2.39889,-0.81139 -0.81139,-0.81139 -0.81139,-2.36361 v -11.67695 q 0,-1.51695 0.776112,-2.32834 0.811389,-0.81139 2.293057,-0.81139 1.481668,0 2.257779,0.81139 0.776112,0.81139 0.776112,2.32834 v 1.44639 h -0.352778 q 0.352778,-2.11667 1.799168,-3.3514 1.481667,-1.23472 3.668891,-1.30527 1.023056,-0.0353 1.516946,0.52916 0.529167,0.52917 0.564444,2.01084 0,1.27 -0.529167,2.01083 -0.529167,0.74084 -2.010834,0.88195 l -0.81139,0.0705 q -1.869723,0.17639 -2.71639,1.05834 -0.846668,0.84666 -0.846668,2.54 v 5.78556 q 0,1.55222 -0.811389,2.36361 -0.81139,0.81139 -2.363613,0.81139 z"
         style="font-weight:900;-inkscape-font-specification:'Nunito Heavy';fill:#a02222"
         id="path828" />
      <path
         d="m 58.424975,194.68228 q -2.257779,0 -3.704169,-0.81139 -1.44639,-0.84667 -2.187224,-2.50473 -0.705556,-1.65805 -0.705556,-4.19806 v -7.40833 q 0,-1.55223 0.81139,-2.32834 0.811389,-0.81139 2.328334,-0.81139 1.516946,0 2.328335,0.81139 0.81139,0.77611 0.81139,2.32834 v 7.58472 q 0,1.27 0.529167,1.905 0.529167,0.635 1.658057,0.635 1.27,0 2.08139,-0.91722 0.811389,-0.91722 0.811389,-2.43417 v -6.77333 q 0,-1.55223 0.81139,-2.32834 0.811389,-0.81139 2.328335,-0.81139 1.516945,0 2.328334,0.81139 0.81139,0.77611 0.81139,2.32834 v 11.67695 q 0,3.175 -3.033891,3.175 -1.481668,0 -2.293057,-0.81139 -0.81139,-0.81139 -0.81139,-2.36361 v -2.04611 l 0.564445,1.72861 q -0.776111,1.72861 -2.187223,2.64583 -1.375835,0.91723 -3.280836,0.91723 z"
         style="font-weight:900;-inkscape-font-specification:'Nunito Heavy';fill:#a02222"
         id="path830" />
      <path
         d="m 76.24026,194.61172 q -1.481668,0 -2.293057,-0.88194 -0.81139,-0.88195 -0.81139,-2.54001 v -11.14778 q 0,-1.65806 0.81139,-2.54 0.811389,-0.88195 2.293057,-0.88195 1.516945,0 2.328335,0.88195 0.846667,0.88194 0.846667,2.54 v 11.14778 q 0,1.65806 -0.811389,2.54001 -0.81139,0.88194 -2.363613,0.88194 z m 0,-20.4964 q -1.658057,0 -2.57528,-0.77611 -0.881945,-0.77612 -0.881945,-2.25778 0,-1.44639 0.881945,-2.2225 0.917223,-0.77612 2.57528,-0.77612 1.728612,0 2.610557,0.77612 0.881945,0.77611 0.881945,2.2225 0,1.48166 -0.881945,2.25778 -0.881945,0.77611 -2.610557,0.77611 z"
         style="font-weight:900;-inkscape-font-specification:'Nunito Heavy';fill:#a02222"
         id="path832" />
      <path
         d="m 92.150484,194.68228 q -2.645835,0 -4.374447,-0.81139 -1.693334,-0.81139 -2.540002,-2.43417 -0.846667,-1.65806 -0.846667,-4.1275 v -5.75029 h -1.199445 q -1.12889,0 -1.76389,-0.59972 -0.599723,-0.59972 -0.599723,-1.72861 0,-1.12889 0.599723,-1.69334 0.635,-0.59972 1.76389,-0.59972 h 1.199445 v -2.18722 q 0,-1.55223 0.81139,-2.36361 0.811389,-0.81139 2.328334,-0.81139 1.516946,0 2.328335,0.81139 0.81139,0.81138 0.81139,2.36361 v 2.18722 h 2.892779 q 1.164168,0 1.763891,0.59972 0.635,0.56445 0.635,1.69334 0,1.12889 -0.635,1.72861 -0.599723,0.59972 -1.763891,0.59972 h -2.892779 v 5.53862 q 0,1.30528 0.599722,1.94028 0.635001,0.59972 1.975557,0.59972 0.493889,0 0.952501,-0.10583 0.458611,-0.10584 0.846667,-0.10584 0.564445,-0.0353 0.917223,0.35278 0.352778,0.35278 0.352778,1.65806 0,1.05833 -0.3175,1.79917 -0.3175,0.70555 -1.12889,1.02305 -0.493889,0.17639 -1.340556,0.28222 -0.846668,0.14112 -1.375835,0.14112 z"
         style="font-weight:900;-inkscape-font-specification:'Nunito Heavy';fill:#a02222"
         id="path834" />
      <path
         d="m 101.78122,194.61172 q -1.48167,0 -2.293059,-0.88194 -0.811389,-0.88195 -0.811389,-2.54001 v -11.14778 q 0,-1.65806 0.811389,-2.54 0.811389,-0.88195 2.293059,-0.88195 1.51694,0 2.32833,0.88195 0.84667,0.88194 0.84667,2.54 v 11.14778 q 0,1.65806 -0.81139,2.54001 -0.81139,0.88194 -2.36361,0.88194 z m 0,-20.4964 q -1.65806,0 -2.575281,-0.77611 -0.881945,-0.77612 -0.881945,-2.25778 0,-1.44639 0.881945,-2.2225 0.917221,-0.77612 2.575281,-0.77612 1.72861,0 2.61056,0.77612 0.88194,0.77611 0.88194,2.2225 0,1.48166 -0.88194,2.25778 -0.88195,0.77611 -2.61056,0.77611 z"
         style="font-weight:900;-inkscape-font-specification:'Nunito Heavy';fill:#a02222"
         id="path836" />
      <path
         d="m 117.37395,194.68228 q -2.89278,0 -5.04473,-1.09362 -2.15195,-1.09361 -3.35139,-3.13972 -1.19945,-2.04611 -1.19945,-4.83306 0,-2.11667 0.67028,-3.77472 0.67028,-1.69334 1.94028,-2.85751 1.27,-1.19944 3.03389,-1.79916 1.76389,-0.635 3.95112,-0.635 2.89278,0 5.04472,1.09361 2.15195,1.09361 3.31612,3.13972 1.19944,2.01084 1.19944,4.83306 0,2.08139 -0.67028,3.77473 -0.67028,1.69333 -1.94028,2.89278 -1.23472,1.16416 -3.03389,1.79916 -1.76389,0.59973 -3.91583,0.59973 z m 0,-4.6214 q 0.9525,0 1.69333,-0.45861 0.74083,-0.49389 1.12889,-1.44639 0.42333,-0.98778 0.42333,-2.54 0,-2.36361 -0.91722,-3.38667 -0.91722,-1.05833 -2.32833,-1.05833 -0.9525,0 -1.69334,0.45861 -0.74083,0.45861 -1.16417,1.44639 -0.42333,0.9525 -0.42333,2.54 0,2.32834 0.91722,3.38667 0.91723,1.05833 2.36362,1.05833 z"
         style="font-weight:900;-inkscape-font-specification:'Nunito Heavy';fill:#a02222"
         id="path838" />
      <path
         d="m 132.93143,194.61172 q -1.48166,0 -2.29305,-0.81139 -0.81139,-0.81139 -0.81139,-2.36361 v -11.67695 q 0,-1.51695 0.77611,-2.32834 0.81139,-0.81139 2.29306,-0.81139 1.48166,0 2.25778,0.81139 0.77611,0.81139 0.77611,2.32834 v 1.65805 l -0.38806,-1.44639 q 0.84667,-1.65805 2.39889,-2.54 1.5875,-0.88194 3.59834,-0.88194 2.08139,0 3.42194,0.81139 1.34056,0.77611 2.01084,2.46944 0.67028,1.65806 0.67028,4.19806 v 7.40834 q 0,1.55222 -0.81139,2.36361 -0.81139,0.81139 -2.32834,0.81139 -1.51694,0 -2.32833,-0.81139 -0.81139,-0.81139 -0.81139,-2.36361 v -7.1614 q 0,-1.5875 -0.56445,-2.25777 -0.52916,-0.67028 -1.5875,-0.67028 -1.41111,0 -2.25778,0.91722 -0.84666,0.88194 -0.84666,2.39889 v 6.77334 q 0,3.175 -3.17501,3.175 z"
         style="font-weight:900;-inkscape-font-specification:'Nunito Heavy';fill:#a02222"
         id="path840" />
    </g>
    <g
       transform="matrix(0.03171431,0,0,-0.02716977,-8.9380135,202.19982)"
       fill="#000000"
       stroke="none"
       id="g8985"
       style="fill:none;stroke:#5f3813;stroke-width:60.8349;stroke-miterlimit:4;stroke-dasharray:none;stroke-opacity:1">
      <path
         style="fill:none;stroke:#5f3813;stroke-width:60.8349;stroke-linecap:butt;stroke-linejoin:miter;stroke-miterlimit:4;stroke-dasharray:none;stroke-opacity:1"
         d="m 4037.4218,898.31529 c 0,0 -24.8277,138.47511 146.5005,244.16751"
         id="path9485"
         sodipodi:nodetypes="cc" />
    </g>
    <path
       style="fill:#2dad12;fill-opacity:1;stroke:none;stroke-width:0.345435px;stroke-linecap:butt;stroke-linejoin:miter;stroke-opacity:1"
       d="m 125.28928,173.60469 c -2.15155,0.83119 -3.87048,-1.26077 -6.70544,4.18811 0,0 10.60594,1.08959 6.70544,-4.18811 z"
       id="path1269"
       sodipodi:nodetypes="ccc" />
  </g>
</svg>
