<?xml version="1.0" standalone="no"?>
<!DOCTYPE svg PUBLIC "-//W3C//DTD SVG 20010904//EN"
 "http://www.w3.org/TR/2001/REC-SVG-20010904/DTD/svg10.dtd">
<svg version="1.0" xmlns="http://www.w3.org/2000/svg"
 width="700.000000pt" height="700.000000pt" viewBox="0 0 700.000000 700.000000"
 preserveAspectRatio="xMidYMid meet">
<metadata>
Created by potrace 1.11, written by Peter Selinger 2001-2013
</metadata>
<g transform="translate(0.000000,700.000000) scale(0.100000,-0.100000)"
fill="#000000" stroke="none">
<path d="M3242 6329 c-18 -3 -35 -9 -38 -11 -6 -6 37 -170 75 -283 70 -211
150 -371 228 -456 l54 -57 -32 -79 c-49 -125 -107 -304 -139 -431 l-11 -43
-38 48 c-148 188 -454 356 -726 399 -22 3 -43 8 -46 9 -28 18 -497 27 -594 13
-22 -4 -62 -9 -90 -13 -287 -37 -590 -188 -800 -399 -296 -298 -420 -698 -382
-1236 4 -52 9 -104 11 -115 2 -11 7 -42 10 -68 49 -361 218 -869 452 -1356
246 -511 534 -872 882 -1105 476 -317 1017 -390 1674 -226 341 85 690 237
1113 482 51 29 84 50 205 128 174 112 439 313 554 420 32 30 98 102 145 160
249 304 432 666 510 1005 43 189 56 410 36 600 -4 39 -9 72 -10 75 -2 3 -6 24
-9 46 -10 67 -36 168 -61 239 -8 22 -22 60 -30 85 -25 69 -121 262 -158 317
-19 28 -36 57 -40 65 -10 26 -183 251 -249 322 -169 186 -267 265 -413 338
-110 55 -271 110 -360 123 -11 2 -45 7 -75 11 -69 11 -309 11 -375 0 -27 -4
-61 -9 -75 -11 -204 -28 -516 -159 -760 -320 -52 -35 -96 -62 -97 -61 -7 6 68
256 110 366 117 311 304 592 492 736 l50 39 -56 82 -56 83 -44 -32 c-42 -30
-212 -196 -254 -248 -12 -14 -38 -51 -59 -83 -21 -31 -39 -57 -39 -57 -1 0 -1
31 1 68 7 134 -43 232 -161 315 -130 93 -245 134 -325 116z"/>
</g>
</svg>
